<svg width="417" height="409" viewBox="0 0 417 409" fill="none" xmlns="http://www.w3.org/2000/svg">
<mask id="mask0_3_326" style="mask-type:alpha" maskUnits="userSpaceOnUse" x="0" y="0" width="417" height="409">
<rect width="417" height="409" fill="#C4C4C4"/>
</mask>
<g mask="url(#mask0_3_326)">
<path d="M0 361H417" stroke="#EBEDF0"/>
<path d="M0 305H417" stroke="#EBEDF0"/>
<path d="M0 249H417" stroke="#EBEDF0"/>
<path d="M0 193H417" stroke="#EBEDF0"/>
<path d="M0 137H417" stroke="#EBEDF0"/>
<path d="M3 29H420" stroke="#EBEDF0"/>
<path d="M0 81H417" stroke="#EBEDF0"/>
<mask id="mask1_3_326" style="mask-type:alpha" maskUnits="userSpaceOnUse" x="-44" y="78" width="461" height="336">
<rect x="-44" y="78" width="461" height="336" fill="#C4C4C4"/>
</mask>
<g mask="url(#mask1_3_326)">
<path opacity="0.1" d="M31.6142 247.886C-5.93639 246.226 -41.6445 324.21 -51.3083 356.727V459.5H432.782V203C387.982 200.5 373.815 144.105 339.474 144.105C305.133 144.105 274.129 225.745 256.642 268.641C242.284 306.832 223.969 314.996 216.606 314.304C182.369 315.964 156.323 230.589 147.579 187.693C139.848 139.539 131.145 129.576 126.871 129.576C119.702 129.545 108.924 143.691 97.88 191.844C86.8357 239.998 69.3489 253.42 61.9861 254.112C51.6875 255.08 39.4373 247.886 31.6142 247.886Z" fill="url(#paint0_linear_3_326)"/>
<path d="M-50.7858 232.853C-35.6372 223.571 -24.4569 222.355 -15.5395 225.475C-6.55294 228.619 0.391693 236.243 6.8747 245.246C10.1121 249.743 13.1897 254.516 16.355 259.209C19.5085 263.885 22.7361 268.462 26.2278 272.48C33.2119 280.518 41.3638 286.449 52.2845 286.449V284.449C42.2012 284.449 34.5524 279.012 27.7375 271.168C24.3298 267.247 21.1583 262.754 18.0131 258.091C14.8796 253.444 11.7587 248.607 8.49773 244.078C1.9839 235.032 -5.26798 226.95 -14.8791 223.587C-24.5594 220.201 -36.3779 221.679 -51.8307 231.147L-50.7858 232.853ZM52.2845 286.449C63.0433 286.449 70.4261 282.928 76.1667 277.48C81.8521 272.085 85.8983 264.818 90.0555 257.455C98.4058 242.666 107.374 227.161 131.133 222.828L130.775 220.861C106.034 225.372 96.6712 241.67 88.3139 256.472C84.1171 263.905 80.2153 270.881 74.79 276.029C69.42 281.125 62.5297 284.449 52.2845 284.449V286.449ZM131.133 222.828C142.838 220.694 153.544 225.518 163.732 234.211C173.929 242.911 183.461 255.364 192.775 268.193C202.056 280.978 211.128 294.149 220.334 304.099C229.514 314.02 239.055 321 249.34 321V319C239.958 319 230.93 312.605 221.802 302.74C212.701 292.904 203.729 279.877 194.393 267.018C185.089 254.202 175.432 241.564 165.03 232.689C154.62 223.807 143.319 218.573 130.775 220.861L131.133 222.828ZM249.34 321C254.583 321 259.401 318.612 263.811 314.595C268.216 310.583 272.274 304.893 276.033 298.143C283.551 284.641 289.984 266.683 295.596 248.799C298.404 239.85 301.011 230.903 303.448 222.525C305.886 214.142 308.151 206.336 310.28 199.647C312.411 192.949 314.391 187.421 316.251 183.58C317.183 181.656 318.06 180.209 318.877 179.257C319.717 178.278 320.34 178 320.754 178V176C319.448 176 318.317 176.839 317.359 177.955C316.378 179.098 315.413 180.723 314.451 182.709C312.524 186.688 310.509 192.332 308.374 199.04C306.236 205.758 303.963 213.592 301.527 221.967C299.09 230.347 296.489 239.275 293.688 248.201C288.081 266.067 281.697 283.859 274.286 297.17C270.58 303.826 266.645 309.308 262.465 313.116C258.29 316.919 253.931 319 249.34 319V321ZM320.754 178C321.948 178 323.067 178.763 324.169 180.625C325.267 182.48 326.201 185.197 327.071 188.577C327.936 191.942 328.717 195.877 329.539 200.129C330.359 204.371 331.219 208.919 332.237 213.468C334.269 222.547 336.959 231.753 341.335 238.705C345.737 245.698 351.913 250.5 360.852 250.5V248.5C352.797 248.5 347.182 244.239 343.027 237.639C338.846 230.997 336.214 222.078 334.189 213.032C333.178 208.518 332.325 204.004 331.503 199.75C330.682 195.505 329.891 191.511 329.008 188.079C328.129 184.662 327.139 181.716 325.89 179.606C324.646 177.503 322.997 176 320.754 176V178ZM360.852 250.5C369.595 250.5 377.477 247.421 384.877 242.85C392.264 238.287 399.234 232.197 406.135 226.123C413.061 220.026 419.919 213.945 427.167 209.275C434.403 204.613 441.962 201.402 450.263 200.999L450.166 199.001C441.393 199.428 433.494 202.82 426.084 207.594C418.686 212.361 411.71 218.551 404.813 224.622C397.89 230.715 391.046 236.689 383.826 241.148C376.62 245.599 369.103 248.5 360.852 248.5V250.5Z" fill="#EF5DA8"/>
<path d="M31.2415 247.886L31.1971 248.885C31.2119 248.886 31.2267 248.886 31.2415 248.886L31.2415 247.886ZM61.4768 254.112L61.5707 255.108L61.4768 254.112ZM126.07 129.576L126.066 130.576H126.07L126.07 129.576ZM146.685 187.693L145.698 187.851C145.7 187.865 145.703 187.878 145.705 187.892L146.685 187.693ZM215.402 314.304L215.496 313.308C215.448 313.304 215.401 313.303 215.353 313.305L215.402 314.304ZM255.257 268.641L254.331 268.265C254.327 268.273 254.324 268.282 254.321 268.29L255.257 268.641ZM-50.3494 357.011C-45.5624 340.831 -34.3064 313.291 -19.5987 290.024C-12.2446 278.39 -4.05638 267.871 4.58096 260.375C13.2281 252.87 22.2154 248.486 31.1971 248.885L31.2858 246.887C21.5766 246.456 12.1023 251.198 3.26999 258.864C-5.57212 266.539 -13.8812 277.236 -21.2892 288.956C-36.1059 312.395 -47.4338 340.106 -52.2672 356.444L-50.3494 357.011ZM31.2415 248.886C33.0518 248.886 35.1703 249.307 37.5445 249.959C39.9187 250.612 42.4551 251.468 45.1334 252.316C50.4221 253.988 56.2164 255.613 61.5707 255.108L61.3828 253.117C56.4849 253.579 51.0555 252.091 45.7365 250.409C43.1111 249.578 40.4977 248.697 38.0745 248.031C35.6514 247.365 33.3251 246.886 31.2414 246.886L31.2415 248.886ZM61.5707 255.108C65.6718 254.721 72.0832 250.9 78.7872 241.351C85.5257 231.753 92.6678 216.228 98.1843 192.067L96.2345 191.622C90.7564 215.614 83.6971 230.877 77.1503 240.202C70.5691 249.576 64.6115 252.812 61.3828 253.117L61.5707 255.108ZM98.1843 192.067C103.674 168.023 109.082 152.543 113.974 143.101C116.421 138.379 118.714 135.215 120.785 133.246C122.857 131.276 124.63 130.57 126.066 130.576L126.075 128.577C123.942 128.567 121.697 129.618 119.407 131.796C117.115 133.976 114.701 137.352 112.198 142.181C107.193 151.843 101.739 167.512 96.2345 191.622L98.1843 192.067ZM126.07 130.576C126.733 130.576 127.824 130.972 129.263 132.558C130.691 134.131 132.361 136.771 134.168 140.972C137.78 149.37 141.855 163.806 145.698 187.851L147.673 187.535C143.82 163.426 139.714 148.803 136.006 140.182C134.153 135.873 132.378 133.013 130.744 131.213C129.122 129.426 127.534 128.576 126.07 128.576L126.07 130.576ZM145.705 187.892C150.066 209.383 158.743 241.528 170.613 268.115C176.546 281.403 183.302 293.362 190.756 301.911C198.195 310.442 206.477 315.74 215.451 315.303L215.353 313.305C207.285 313.698 199.545 308.947 192.264 300.596C184.998 292.264 178.337 280.509 172.439 267.299C160.648 240.89 152.009 208.898 147.665 187.494L145.705 187.892ZM215.308 315.299C219.358 315.682 226.018 313.626 233.398 306.787C240.803 299.925 249.009 288.19 256.194 268.991L254.321 268.29C247.213 287.283 239.156 298.725 232.039 305.32C224.897 311.938 218.775 313.618 215.496 313.308L215.308 315.299ZM256.184 269.017C264.899 247.542 276.942 216.476 291.072 190.769C298.137 177.914 305.695 166.456 313.581 158.223C321.484 149.972 329.577 145.105 337.717 145.105V143.105C328.764 143.105 320.179 148.443 312.136 156.84C304.076 165.255 296.419 176.888 289.319 189.805C275.118 215.642 263.024 246.844 254.331 268.265L256.184 269.017ZM337.717 145.105C345.963 145.105 353.043 148.498 359.767 153.744C366.514 159.008 372.809 166.059 379.524 173.295C392.878 187.684 407.803 202.723 430.55 203.998L430.662 202.002C408.81 200.777 394.385 186.368 380.99 171.935C374.331 164.759 367.903 157.556 360.997 152.167C354.068 146.761 346.565 143.105 337.717 143.105V145.105Z" fill="#3751FF"/>
<path opacity="0.16" d="M287.344 206C293.396 206 297.948 199.96 297.948 193C297.948 186.04 293.396 180 287.344 180C281.291 180 276.739 186.04 276.739 193C276.739 199.96 281.291 206 287.344 206Z" stroke="#3751FF" stroke-width="2"/>
<g filter="url(#filter0_d_3_326)">
<ellipse cx="287.344" cy="193" rx="5.60243" ry="7" fill="white"/>
<path d="M290.946 193C290.946 196.2 288.941 198 287.344 198C285.747 198 283.741 196.2 283.741 193C283.741 189.8 285.747 188 287.344 188C288.941 188 290.946 189.8 290.946 193Z" stroke="#3751FF" stroke-width="4"/>
</g>
<g filter="url(#filter1_d_3_326)">
<mask id="path-16-outside-1_3_326" maskUnits="userSpaceOnUse" x="260.932" y="131" width="53" height="38" fill="black">
<rect fill="white" x="260.932" y="131" width="53" height="38"/>
<path fill-rule="evenodd" clip-rule="evenodd" d="M265.932 132H308.932C311.141 132 312.932 133.791 312.932 136V158C312.932 160.209 311.141 162 308.932 162L293.932 162L287.193 167.777C287.043 167.905 286.822 167.905 286.672 167.777L279.932 162L265.932 162C263.723 162 261.932 160.209 261.932 158V136C261.932 133.791 263.723 132 265.932 132Z"/>
</mask>
<path fill-rule="evenodd" clip-rule="evenodd" d="M265.932 132H308.932C311.141 132 312.932 133.791 312.932 136V158C312.932 160.209 311.141 162 308.932 162L293.932 162L287.193 167.777C287.043 167.905 286.822 167.905 286.672 167.777L279.932 162L265.932 162C263.723 162 261.932 160.209 261.932 158V136C261.932 133.791 263.723 132 265.932 132Z" fill="white"/>
<path d="M308.932 162V162.5V162ZM293.932 162V161.5H293.747L293.607 161.62L293.932 162ZM287.193 167.777L286.867 167.397L286.867 167.397L287.193 167.777ZM286.672 167.777L286.997 167.397L286.997 167.397L286.672 167.777ZM279.932 162L280.258 161.62L280.117 161.5H279.932V162ZM265.932 162V162.5V162ZM308.932 131.5H265.932V132.5H308.932V131.5ZM313.432 136C313.432 133.515 311.418 131.5 308.932 131.5V132.5C310.865 132.5 312.432 134.067 312.432 136H313.432ZM313.432 158V136H312.432V158H313.432ZM308.932 162.5C311.418 162.5 313.432 160.485 313.432 158H312.432C312.432 159.933 310.865 161.5 308.932 161.5V162.5ZM293.932 162.5L308.932 162.5V161.5L293.932 161.5V162.5ZM293.607 161.62L286.867 167.397L287.518 168.156L294.258 162.38L293.607 161.62ZM286.867 167.397C286.905 167.365 286.96 167.365 286.997 167.397L286.347 168.156C286.684 168.445 287.181 168.445 287.518 168.156L286.867 167.397ZM286.997 167.397L280.258 161.62L279.607 162.38L286.347 168.156L286.997 167.397ZM265.932 162.5L279.932 162.5V161.5L265.932 161.5V162.5ZM261.432 158C261.432 160.485 263.447 162.5 265.932 162.5V161.5C263.999 161.5 262.432 159.933 262.432 158H261.432ZM261.432 136V158H262.432V136H261.432ZM265.932 131.5C263.447 131.5 261.432 133.515 261.432 136H262.432C262.432 134.067 263.999 132.5 265.932 132.5V131.5Z" fill="#DFE0EB" mask="url(#path-16-outside-1_3_326)"/>
</g>
<path d="M284.508 146.876C285.086 147.044 285.53 147.333 285.838 147.744C286.146 148.155 286.3 148.673 286.3 149.298C286.3 150.166 285.992 150.852 285.376 151.356C284.769 151.851 283.943 152.098 282.898 152.098C282.235 152.098 281.6 151.995 280.994 151.79C280.396 151.575 279.897 151.277 279.496 150.894L280.014 149.83C280.91 150.558 281.857 150.922 282.856 150.922C284.218 150.922 284.9 150.348 284.9 149.2C284.9 148.64 284.722 148.225 284.368 147.954C284.013 147.674 283.476 147.534 282.758 147.534H281.54V146.358H282.534C283.224 146.358 283.752 146.213 284.116 145.924C284.48 145.635 284.662 145.215 284.662 144.664C284.662 144.16 284.508 143.773 284.2 143.502C283.901 143.231 283.476 143.096 282.926 143.096C281.992 143.096 281.068 143.46 280.154 144.188L279.636 143.124C280.028 142.751 280.522 142.457 281.12 142.242C281.726 142.027 282.352 141.92 282.996 141.92C283.929 141.92 284.671 142.153 285.222 142.62C285.782 143.077 286.062 143.698 286.062 144.482C286.062 145.051 285.926 145.546 285.656 145.966C285.385 146.386 285.002 146.689 284.508 146.876ZM293.228 146.876C293.872 147.053 294.372 147.357 294.726 147.786C295.09 148.215 295.272 148.733 295.272 149.34C295.272 150.199 294.941 150.875 294.278 151.37C293.625 151.855 292.743 152.098 291.632 152.098C290.522 152.098 289.635 151.855 288.972 151.37C288.319 150.875 287.992 150.199 287.992 149.34C287.992 148.724 288.174 148.201 288.538 147.772C288.902 147.343 289.411 147.044 290.064 146.876C289.486 146.689 289.033 146.395 288.706 145.994C288.389 145.593 288.23 145.121 288.23 144.58C288.23 144.048 288.375 143.581 288.664 143.18C288.954 142.779 289.355 142.471 289.868 142.256C290.382 142.032 290.97 141.92 291.632 141.92C292.295 141.92 292.883 142.032 293.396 142.256C293.91 142.471 294.311 142.779 294.6 143.18C294.89 143.581 295.034 144.048 295.034 144.58C295.034 145.121 294.876 145.597 294.558 146.008C294.241 146.409 293.798 146.699 293.228 146.876ZM289.616 144.706C289.616 145.191 289.798 145.588 290.162 145.896C290.526 146.195 291.016 146.386 291.632 146.47C292.248 146.386 292.738 146.195 293.102 145.896C293.466 145.588 293.648 145.191 293.648 144.706C293.648 144.193 293.466 143.796 293.102 143.516C292.748 143.227 292.258 143.082 291.632 143.082C291.007 143.082 290.512 143.227 290.148 143.516C289.794 143.796 289.616 144.193 289.616 144.706ZM291.632 150.936C292.351 150.936 292.906 150.791 293.298 150.502C293.69 150.213 293.886 149.793 293.886 149.242C293.886 148.729 293.681 148.323 293.27 148.024C292.869 147.716 292.323 147.52 291.632 147.436C290.942 147.52 290.391 147.716 289.98 148.024C289.579 148.323 289.378 148.729 289.378 149.242C289.378 149.793 289.574 150.213 289.966 150.502C290.358 150.791 290.914 150.936 291.632 150.936Z" fill="#252733"/>
</g>
</g>
<defs>
<filter id="filter0_d_3_326" x="279.741" y="185" width="15.2048" height="18" filterUnits="userSpaceOnUse" color-interpolation-filters="sRGB">
<feFlood flood-opacity="0" result="BackgroundImageFix"/>
<feColorMatrix in="SourceAlpha" type="matrix" values="0 0 0 0 0 0 0 0 0 0 0 0 0 0 0 0 0 0 127 0" result="hardAlpha"/>
<feOffset dy="1"/>
<feGaussianBlur stdDeviation="1"/>
<feColorMatrix type="matrix" values="0 0 0 0 0.215686 0 0 0 0 0.317647 0 0 0 0 1 0 0 0 0.2 0"/>
<feBlend mode="normal" in2="BackgroundImageFix" result="effect1_dropShadow_3_326"/>
<feBlend mode="normal" in="SourceGraphic" in2="effect1_dropShadow_3_326" result="shape"/>
</filter>
<filter id="filter1_d_3_326" x="257.432" y="128.5" width="60" height="44.8732" filterUnits="userSpaceOnUse" color-interpolation-filters="sRGB">
<feFlood flood-opacity="0" result="BackgroundImageFix"/>
<feColorMatrix in="SourceAlpha" type="matrix" values="0 0 0 0 0 0 0 0 0 0 0 0 0 0 0 0 0 0 127 0" result="hardAlpha"/>
<feOffset dy="1"/>
<feGaussianBlur stdDeviation="2"/>
<feColorMatrix type="matrix" values="0 0 0 0 0 0 0 0 0 0 0 0 0 0 0 0 0 0 0.08 0"/>
<feBlend mode="normal" in2="BackgroundImageFix" result="effect1_dropShadow_3_326"/>
<feBlend mode="normal" in="SourceGraphic" in2="effect1_dropShadow_3_326" result="shape"/>
</filter>
<linearGradient id="paint0_linear_3_326" x1="-44.3153" y1="303.5" x2="417.082" y2="303.806" gradientUnits="userSpaceOnUse">
<stop stop-color="#3751FF"/>
<stop offset="1" stop-color="#3751FF" stop-opacity="0"/>
</linearGradient>
</defs>
</svg>
