<svg width="38" height="42" viewBox="0 0 38 42" fill="none" xmlns="http://www.w3.org/2000/svg">
<path d="M11.0937 6.09166C11.5934 5.86704 12.1613 5.84823 12.6747 6.0393C13.1881 6.23037 13.6055 6.61594 13.8367 7.11254C14.0679 7.60915 14.0942 8.17682 13.9099 8.69267C13.7256 9.20852 13.3456 9.63103 12.8521 9.86874C9.84051 11.2674 7.3967 13.6523 5.92502 16.6289C4.45334 19.6055 4.04199 22.9953 4.75905 26.2374C5.4761 29.4796 7.27857 32.3798 9.86822 34.4582C12.4579 36.5365 15.6795 37.6684 19 37.6667C22.3162 37.6658 25.5331 36.5344 28.1197 34.4592C30.7064 32.3839 32.5082 29.4888 33.228 26.2516C33.9477 23.0144 33.5423 19.6286 32.0786 16.6528C30.615 13.6771 28.1806 11.2892 25.1771 9.88332C24.9292 9.76732 24.7066 9.60363 24.522 9.40161C24.3374 9.19958 24.1944 8.96317 24.1011 8.70588C23.9128 8.18624 23.9386 7.61309 24.1729 7.11249C24.4072 6.61189 24.8307 6.22487 25.3504 6.03655C25.87 5.84823 26.4432 5.87405 26.9437 6.10832C30.1736 7.61787 32.9059 10.0173 34.82 13.0252C36.734 16.033 37.7505 19.5244 37.75 23.0896C37.75 33.4437 29.3542 41.8333 19 41.8333C8.64583 41.8333 0.25 33.4417 0.25 23.0917C0.249288 19.5192 1.26963 16.021 3.19082 13.0091C5.112 9.99718 7.85399 7.59712 11.0937 6.09166ZM19 0.166656C19.5103 0.166724 20.0028 0.354065 20.3841 0.693147C20.7654 1.03223 21.009 1.49947 21.0687 2.00624L21.0833 2.24999V16.8333C21.0833 17.3645 20.8803 17.8756 20.516 18.2621C20.1516 18.6486 19.6534 18.8814 19.1231 18.9128C18.5929 18.9442 18.0707 18.7718 17.6632 18.431C17.2558 18.0902 16.994 17.6066 16.9312 17.0792L16.9167 16.8333V2.24999C16.9167 1.69746 17.1362 1.16755 17.5269 0.776851C17.9176 0.38615 18.4475 0.166656 19 0.166656Z" fill="white"/>
</svg>
